<svg width="17" height="17" viewBox="0 0 17 17" fill="none" xmlns="http://www.w3.org/2000/svg">
<path d="M1 6.11005H16.3301M4.4067 1V2.70335M12.9234 1V2.70335M3.55502 8.66507H5.25837M7.8134 8.66507H9.51675M12.0718 8.66507H13.7751M3.55502 11.2201H5.25837M7.8134 11.2201H9.51675M12.0718 11.2201H13.7751M3.55502 13.7751H5.25837M7.8134 13.7751H9.51675M12.0718 13.7751H13.7751M3.72536 16.3301H13.6048C14.5587 16.3301 15.0358 16.3301 15.4001 16.1445C15.7206 15.9812 15.9812 15.7206 16.1445 15.4001C16.3301 15.0358 16.3301 14.5587 16.3301 13.6048V5.42871C16.3301 4.47474 16.3301 3.99776 16.1445 3.6334C15.9812 3.31288 15.7206 3.05231 15.4001 2.88901C15.0358 2.70335 14.5587 2.70335 13.6048 2.70335H3.72536C2.7714 2.70335 2.29441 2.70335 1.93005 2.88901C1.60954 3.05231 1.34896 3.31288 1.18566 3.6334C1 3.99776 1 4.47474 1 5.42871V13.6048C1 14.5587 1 15.0358 1.18566 15.4001C1.34896 15.7206 1.60954 15.9812 1.93005 16.1445C2.29441 16.3301 2.77139 16.3301 3.72536 16.3301Z" stroke="#DC2626" stroke-width="1.10512" stroke-linecap="round"/>
</svg>
