<svg width="25" height="19" viewBox="0 0 25 19" fill="none" xmlns="http://www.w3.org/2000/svg">
<path d="M24.3014 8.33786C24.3011 7.65766 24.249 7.00332 24.0831 6.42009C24.0001 6.12885 23.8884 5.8546 23.7373 5.60656C23.587 5.35851 23.397 5.13672 23.1629 4.95474L23.1604 4.95303C22.7142 4.61314 22.3007 4.3884 21.8652 4.25379C21.4297 4.11919 20.9802 4.07562 20.4629 4.07562C19.878 4.07562 19.2012 4.1302 18.3268 4.18141C17.5458 4.2276 16.4877 4.23562 15.5202 4.23562C15.005 4.23562 14.5153 4.23348 14.1044 4.23348C13.5381 4.23391 12.603 4.15051 11.6503 4.01762C10.6979 3.88557 9.72024 3.70269 9.06334 3.51227C8.45472 3.33618 7.91425 3.10978 7.44735 2.92263C7.21373 2.82912 6.99786 2.7453 6.79719 2.68265C6.72314 2.66025 6.65204 2.64117 6.58137 2.62465C6.67872 2.39398 6.71469 2.16544 6.71469 1.9724C6.71469 1.86366 6.70411 1.76589 6.68299 1.67784C6.67236 1.6338 6.65926 1.59231 6.64065 1.5504C6.62162 1.50849 6.59917 1.46578 6.55265 1.41788V1.41831C6.48364 1.35063 6.40789 1.31294 6.3262 1.28589C6.24409 1.25959 6.15477 1.24611 6.0587 1.24611C5.87715 1.24611 5.66931 1.2969 5.45686 1.41157C5.41708 1.1669 5.32776 0.934561 5.22153 0.732223C5.14872 0.5951 5.06747 0.472359 4.98156 0.368224C4.89437 0.264515 4.80717 0.178606 4.69545 0.115527C4.56169 0.0414834 4.42414 0.00037971 4.28574 0C4.16808 0 4.04453 0.030899 3.94077 0.115527C3.88999 0.15739 3.84599 0.212875 3.81718 0.275954C3.78841 0.338606 3.77489 0.407144 3.77531 0.473593C3.77531 0.554044 3.79354 0.631078 3.82354 0.703413C3.86625 0.806267 3.90774 0.934514 3.93697 1.06361C3.96659 1.19272 3.98396 1.32391 3.98396 1.42847C3.98396 1.49572 3.97675 1.55159 3.96664 1.58633C3.96242 1.60071 3.95814 1.61044 3.9552 1.61723C3.86844 1.67015 3.65001 1.80433 3.41345 1.95071C3.26104 2.04469 3.10195 2.14332 2.96691 2.22752C2.83192 2.3122 2.72271 2.38116 2.66262 2.42098C2.62451 2.4468 2.60125 2.46921 2.57291 2.4955C2.5217 2.5442 2.46455 2.60552 2.39682 2.68089C2.16278 2.94247 1.81231 3.36826 1.49311 3.74498C1.33402 3.93294 1.18289 4.10813 1.06224 4.24022C1.00215 4.30582 0.949275 4.3613 0.909026 4.40022C0.889138 4.4193 0.872621 4.43449 0.861609 4.44379L0.850598 4.45224C0.728284 4.52211 0.547115 4.62197 0.386687 4.72819C0.305429 4.78278 0.229202 4.83826 0.161092 4.90343C0.126823 4.93689 0.0942155 4.97244 0.0633166 5.02029C0.0481282 5.0444 0.0332721 5.07193 0.0214061 5.10534C0.00887572 5.13928 0 5.17986 0 5.22647C0.000854347 5.27726 0.00764166 5.30308 0.0143815 5.33141C0.027529 5.38182 0.0444261 5.43004 0.0668764 5.48638C0.144764 5.67937 0.283596 5.9549 0.443169 6.20128C0.523572 6.32402 0.607393 6.43831 0.700944 6.53395C0.748361 6.58175 0.798293 6.6258 0.859236 6.66343C0.9198 6.70022 0.995979 6.73539 1.09883 6.73662C1.11573 6.73624 1.1818 6.73999 1.26937 6.74721C1.5813 6.77303 2.20858 6.84081 2.90696 6.91314C3.55413 6.9804 4.26224 7.05197 4.85227 7.09977C4.9471 7.25891 5.1257 7.56705 5.32761 7.95051C5.59175 8.45168 5.89481 9.0819 6.09667 9.66305C6.15253 9.8239 6.2131 10.041 6.27528 10.2823C6.36968 10.6445 6.46874 11.0619 6.57624 11.4471C6.62997 11.6401 6.68588 11.8251 6.74512 11.9931C6.80435 12.1615 6.86663 12.3127 6.93896 12.4426C7.28222 13.0567 7.62757 13.6205 7.88154 14.1005C8.00808 14.34 8.11222 14.5589 8.18166 14.7481C8.2519 14.9364 8.28574 15.0947 8.28489 15.2056C8.28489 15.7859 8.28489 17.0062 8.28489 17.2407L8.03646 18.0829L8.21426 18.1938C8.24644 18.2146 8.5842 18.4152 9.18352 18.4152C9.35112 18.4152 9.49972 18.3839 9.62493 18.3234C9.71853 18.2781 9.79765 18.2167 9.85902 18.1486C9.95087 18.0457 10.0025 17.9318 10.0313 17.8303C10.06 17.7283 10.0677 17.6377 10.0677 17.5666C10.0677 17.4773 10.0677 16.8064 10.0677 16.1584C10.0677 15.8342 10.0677 15.5154 10.0677 15.2776C10.0677 15.0401 10.0677 14.8844 10.0677 14.8835V14.8552L10.0614 14.8268L10.06 14.8201C10.0528 14.785 10.0186 14.6139 9.98599 14.4053C9.95343 14.1974 9.92424 13.9486 9.92462 13.7746C9.92424 13.7497 9.93098 13.6722 9.94626 13.5753C9.99662 13.2383 10.1278 12.6352 10.2523 12.0778C10.4537 12.1353 10.7318 12.2132 11.0383 12.2941C11.3426 12.3741 11.674 12.457 11.9859 12.526C12.2987 12.595 12.5886 12.65 12.8227 12.6733C13.9892 12.7901 14.8844 12.9078 16.3256 12.9078C16.643 12.9078 16.9871 12.9018 17.3664 12.8895C18.4876 12.8523 19.3176 12.592 19.8695 12.3363C20.104 12.2276 20.2851 12.1213 20.421 12.032C20.6372 12.5946 20.9369 13.033 21.2201 13.356C21.4351 13.6019 21.6409 13.7848 21.789 13.9104C21.8415 13.9545 21.8863 13.9917 21.9206 14.0205C21.9185 14.0505 21.9159 14.0835 21.9134 14.1229C21.8867 14.4971 21.8271 15.2729 21.7741 15.9548C21.7478 16.2955 21.7233 16.613 21.7051 16.8454C21.6933 16.9994 21.684 17.1146 21.6793 17.1755L21.2594 18.0936L21.4512 18.2252C21.4867 18.2501 21.8046 18.4512 22.4035 18.4508C22.5648 18.4508 22.7116 18.4266 22.8424 18.375C22.9406 18.3365 23.0287 18.2823 23.1027 18.2154C23.2136 18.1147 23.289 17.9886 23.3334 17.8587C23.3783 17.7283 23.3948 17.5933 23.3948 17.4595C23.3944 17.457 23.3965 17.4282 23.4011 17.3901C23.4194 17.2411 23.4757 16.9385 23.5493 16.5762C23.6589 16.031 23.8075 15.3411 23.9285 14.7511C23.989 14.4561 24.0428 14.186 24.0817 13.9689C24.1012 13.8606 24.1173 13.7653 24.1287 13.6853C24.1397 13.6041 24.1474 13.5431 24.1478 13.4796C24.1478 13.4584 24.1474 13.4373 24.1419 13.4047C24.0944 13.1367 24.0741 12.8201 24.0746 12.4705C24.0741 11.8809 24.13 11.1995 24.1871 10.4909C24.2439 9.78199 24.3014 9.04554 24.3014 8.33786ZM23.4414 14.3752C23.3314 14.9229 23.1832 15.6128 23.0622 16.2008C23.0016 16.4949 22.9479 16.7632 22.9089 16.9778C22.8894 17.0854 22.8733 17.1793 22.862 17.2576C22.8509 17.3376 22.8433 17.3965 22.8429 17.4595C22.8429 17.5369 22.8336 17.6051 22.8175 17.6593C22.7921 17.7414 22.7595 17.7884 22.7066 17.8264C22.6537 17.8633 22.5644 17.8984 22.4035 17.8988C22.222 17.8984 22.0814 17.876 21.9781 17.8493L22.2219 17.3164L22.2257 17.2673C22.2257 17.2673 22.2887 16.4623 22.3522 15.6432C22.3835 15.234 22.4153 14.8209 22.439 14.5034C22.4504 14.3447 22.4606 14.2101 22.4673 14.1111C22.4711 14.0615 22.4737 14.0209 22.4758 13.9905C22.4766 13.9747 22.4771 13.9621 22.4779 13.9511C22.4784 13.9397 22.4788 13.9329 22.4792 13.9177C22.4788 13.8762 22.4703 13.8444 22.4623 13.8203C22.4449 13.7733 22.4271 13.7505 22.4131 13.7314C22.3856 13.6959 22.3653 13.6772 22.3429 13.6561C22.3014 13.6184 22.2544 13.5803 22.1973 13.5325C21.9996 13.367 21.6826 13.094 21.3859 12.6771C21.0901 12.2602 20.8162 11.7048 20.7108 10.9696L20.1644 11.0475C20.1859 11.1986 20.2151 11.3413 20.2486 11.4801C19.9701 11.6875 19.0372 12.2809 17.348 12.3376C16.9743 12.3499 16.6365 12.3554 16.3254 12.3554C14.9155 12.3554 14.0559 12.2419 12.8775 12.1239C12.6837 12.1048 12.4056 12.0536 12.1051 11.9872C11.6531 11.8872 11.1469 11.7539 10.7553 11.6456C10.6089 11.605 10.4786 11.5681 10.3727 11.5381C10.396 11.4344 10.418 11.3353 10.4371 11.2465C10.4612 11.136 10.4815 11.0391 10.4976 10.9591C10.5137 10.8778 10.5247 10.8177 10.5306 10.7644L9.9821 10.7035C9.97996 10.7238 9.96772 10.7944 9.94949 10.8846C9.88432 11.2067 9.74122 11.8238 9.61468 12.405C9.55118 12.6961 9.49151 12.9789 9.44751 13.2155C9.42549 13.334 9.40727 13.4411 9.39417 13.5334C9.38102 13.6265 9.37257 13.7023 9.37214 13.7746C9.37257 14.0184 9.41068 14.3024 9.44751 14.534C9.47585 14.7109 9.50338 14.8531 9.5152 14.9115C9.5152 14.9665 9.5152 15.099 9.5152 15.2776C9.5152 15.9904 9.5152 17.4324 9.5152 17.5666C9.5152 17.5933 9.51225 17.6305 9.50376 17.6665C9.49702 17.6932 9.48767 17.7185 9.47585 17.7406C9.45677 17.7732 9.4365 17.7969 9.39839 17.8189C9.35985 17.8405 9.29682 17.8629 9.18338 17.8629C8.97046 17.8629 8.80965 17.8312 8.69621 17.7981L8.8367 17.3203V17.2805C8.8367 17.2805 8.8367 15.8495 8.8367 15.2057C8.83628 14.9945 8.78212 14.782 8.69958 14.5568C8.5747 14.2199 8.38129 13.8534 8.15569 13.4538C7.93053 13.0551 7.67318 12.625 7.42096 12.1734C7.35622 12.0587 7.2825 11.8712 7.21268 11.6515C7.10646 11.3205 7.00441 10.9146 6.90669 10.5252C6.80848 10.1346 6.71531 9.76291 6.61801 9.48183C6.3861 8.81563 6.04579 8.12275 5.76219 7.59201C5.47902 7.06127 5.25257 6.69429 5.25049 6.69092L5.17682 6.57154L5.03676 6.56053C4.34516 6.50761 3.43851 6.41363 2.66988 6.33366C2.28552 6.29303 1.93552 6.25619 1.66213 6.22914C1.52582 6.21604 1.40858 6.20503 1.3146 6.19696C1.24094 6.19103 1.18507 6.1868 1.13766 6.18552C1.1275 6.17793 1.1135 6.16649 1.09447 6.1466C1.04368 6.09581 0.976804 6.00905 0.912016 5.90957C0.813813 5.76015 0.716892 5.58112 0.647453 5.43465C0.617408 5.37161 0.593724 5.3166 0.576352 5.27256C0.589452 5.26155 0.603881 5.25011 0.620351 5.23829C0.686421 5.18916 0.776554 5.13249 0.86759 5.07871C0.95853 5.02499 1.05127 4.97334 1.12826 4.9293C1.17188 4.90391 1.20022 4.88017 1.23197 4.85269C1.28954 4.80229 1.35091 4.73963 1.42239 4.66345C1.66873 4.39937 2.023 3.97271 2.34044 3.59429C2.49873 3.40595 2.64772 3.23029 2.76543 3.09653C2.82423 3.03009 2.87545 2.97379 2.91394 2.93402C2.93345 2.91413 2.94954 2.89804 2.96055 2.88831L2.97194 2.87815C3.02102 2.84559 3.12857 2.77744 3.25891 2.69575C3.45954 2.57045 3.71565 2.41215 3.92174 2.28562C4.12787 2.1586 4.28275 2.06339 4.28322 2.06339L4.30819 2.0482L4.32978 2.02789C4.41911 1.94193 4.46866 1.83784 4.49743 1.7367C4.52576 1.63513 4.53549 1.5327 4.53549 1.42856C4.53549 1.26685 4.51133 1.10135 4.47493 0.940969C4.44446 0.808925 4.40468 0.684047 4.36064 0.568473C4.38095 0.575213 4.40255 0.584136 4.42713 0.598091C4.44232 0.605305 4.49909 0.650206 4.55576 0.720452C4.64338 0.825821 4.74077 0.984967 4.81145 1.15726C4.88297 1.32993 4.9274 1.51618 4.92697 1.67362C4.92697 1.76546 4.91297 1.84672 4.88587 1.91573L5.14236 2.01688L5.34978 2.19933C5.63888 1.87216 5.90511 1.79892 6.05832 1.7985C6.09686 1.79807 6.12605 1.80357 6.14632 1.80908C6.14803 1.8171 6.15011 1.82602 6.15182 1.83575C6.15818 1.87173 6.16245 1.91915 6.16245 1.97245C6.16283 2.13079 6.12391 2.33987 6.01603 2.52611C5.90681 2.7136 5.73708 2.88504 5.43616 3.00099L5.63209 3.51692C5.88308 3.42252 6.08457 3.28625 6.24115 3.13004C6.33513 3.13261 6.46931 3.15885 6.63263 3.21007C6.89382 3.2909 7.22351 3.42887 7.60611 3.58171C7.98876 3.73454 8.42515 3.90256 8.90975 4.04263C9.61236 4.24582 10.6028 4.42908 11.5742 4.56449C12.5456 4.69953 13.4894 4.78548 14.104 4.78548C14.5129 4.78548 15.003 4.788 15.5198 4.788C16.4912 4.788 17.5544 4.77998 18.3586 4.73256C19.239 4.68092 19.9124 4.62714 20.4626 4.62757C20.9506 4.62757 21.3375 4.66863 21.7015 4.78121C22.0651 4.89427 22.4139 5.07962 22.824 5.39112C23.0009 5.52867 23.1453 5.69589 23.2654 5.8931C23.4453 6.18899 23.5681 6.55384 23.6438 6.96943C23.72 7.38507 23.7492 7.84941 23.7492 8.33786C23.7492 9.01545 23.6929 9.73885 23.6367 10.4465C23.58 11.1546 23.5224 11.8471 23.522 12.4706C23.5224 12.8337 23.5419 13.1736 23.5956 13.4835C23.5952 13.4919 23.5935 13.5181 23.5893 13.5533C23.5709 13.7056 23.5146 14.0112 23.4414 14.3752Z" fill="#DC2626"/>
</svg>
